<svg width="39" height="39" viewBox="0 0 39 39" fill="none" xmlns="http://www.w3.org/2000/svg">
<g clip-path="url(#clip0_5602_21621)">
<g filter="url(#filter0_di_5602_21621)">
<path d="M16 16.125V12.125C16 9.91586 14.2091 8.125 12 8.125C9.79086 8.125 8 9.91586 8 12.125C8 14.3341 9.79086 16.125 12 16.125H16ZM16 16.125V24.125M16 16.125H24M16 24.125V28.125C16 30.3341 14.2091 32.125 12 32.125C9.79086 32.125 8 30.3341 8 28.125C8 25.9159 9.79086 24.125 12 24.125H16ZM16 24.125H24M24 24.125H28C30.2091 24.125 32 25.9159 32 28.125C32 30.3341 30.2091 32.125 28 32.125C25.7909 32.125 24 30.3341 24 28.125V24.125ZM24 24.125V16.125M24 16.125V12.125C24 9.91586 25.7909 8.125 28 8.125C30.2091 8.125 32 9.91586 32 12.125C32 14.3341 30.2091 16.125 28 16.125H24Z" stroke="url(#paint0_linear_5602_21621)" stroke-width="2.28571" stroke-linecap="round" stroke-linejoin="round" shape-rendering="crispEdges"/>
</g>
</g>
<defs>
<filter id="filter0_di_5602_21621" x="0.800035" y="3.55355" width="38.3999" height="38.4001" filterUnits="userSpaceOnUse" color-interpolation-filters="sRGB">
<feFlood flood-opacity="0" result="BackgroundImageFix"/>
<feColorMatrix in="SourceAlpha" type="matrix" values="0 0 0 0 0 0 0 0 0 0 0 0 0 0 0 0 0 0 127 0" result="hardAlpha"/>
<feOffset dy="2.62857"/>
<feGaussianBlur stdDeviation="3.02857"/>
<feComposite in2="hardAlpha" operator="out"/>
<feColorMatrix type="matrix" values="0 0 0 0 0 0 0 0 0 0 0 0 0 0 0 0 0 0 0.25 0"/>
<feBlend mode="normal" in2="BackgroundImageFix" result="effect1_dropShadow_5602_21621"/>
<feBlend mode="normal" in="SourceGraphic" in2="effect1_dropShadow_5602_21621" result="shape"/>
<feColorMatrix in="SourceAlpha" type="matrix" values="0 0 0 0 0 0 0 0 0 0 0 0 0 0 0 0 0 0 127 0" result="hardAlpha"/>
<feOffset dy="1.51429"/>
<feGaussianBlur stdDeviation="0.757143"/>
<feComposite in2="hardAlpha" operator="arithmetic" k2="-1" k3="1"/>
<feColorMatrix type="matrix" values="0 0 0 0 1 0 0 0 0 1 0 0 0 0 1 0 0 0 0.3 0"/>
<feBlend mode="normal" in2="shape" result="effect2_innerShadow_5602_21621"/>
</filter>
<linearGradient id="paint0_linear_5602_21621" x1="20" y1="8.125" x2="20" y2="32.125" gradientUnits="userSpaceOnUse">
<stop stop-color="#8A64F6"/>
<stop offset="1" stop-color="#E9E1FF"/>
</linearGradient>
<clipPath id="clip0_5602_21621">
<rect width="32" height="32" fill="white" transform="translate(4 4.125)"/>
</clipPath>
</defs>
</svg>
