<svg width="35" height="35" viewBox="0 0 35 35" fill="none" xmlns="http://www.w3.org/2000/svg">
<g clip-path="url(#clip0_5602_21949)">
<g filter="url(#filter0_dii_5602_21949)">
<path d="M17.5 2.95837C21.75 5.79171 23.0573 11.8721 23.1667 17.125C23.0573 22.378 21.75 28.4584 17.5 31.2917M17.5 2.95837C13.25 5.79171 11.9428 11.8721 11.8334 17.125C11.9428 22.378 13.25 28.4584 17.5 31.2917M17.5 2.95837C9.67601 2.95837 3.33337 9.30101 3.33337 17.125M17.5 2.95837C25.3241 2.95837 31.6667 9.30101 31.6667 17.125M17.5 31.2917C25.3241 31.2917 31.6667 24.9491 31.6667 17.125M17.5 31.2917C9.67601 31.2917 3.33337 24.9491 3.33337 17.125M31.6667 17.125C28.8334 21.375 22.753 22.6823 17.5 22.7917C12.2471 22.6823 6.16671 21.375 3.33337 17.125M31.6667 17.125C28.8334 12.875 22.753 11.5678 17.5 11.4584C12.2471 11.5678 6.16671 12.875 3.33337 17.125" stroke="#DADBDF" stroke-width="2" stroke-linecap="round" stroke-linejoin="round" shape-rendering="crispEdges"/>
<path d="M17.5 2.95837C21.75 5.79171 23.0573 11.8721 23.1667 17.125C23.0573 22.378 21.75 28.4584 17.5 31.2917M17.5 2.95837C13.25 5.79171 11.9428 11.8721 11.8334 17.125C11.9428 22.378 13.25 28.4584 17.5 31.2917M17.5 2.95837C9.67601 2.95837 3.33337 9.30101 3.33337 17.125M17.5 2.95837C25.3241 2.95837 31.6667 9.30101 31.6667 17.125M17.5 31.2917C25.3241 31.2917 31.6667 24.9491 31.6667 17.125M17.5 31.2917C9.67601 31.2917 3.33337 24.9491 3.33337 17.125M31.6667 17.125C28.8334 21.375 22.753 22.6823 17.5 22.7917C12.2471 22.6823 6.16671 21.375 3.33337 17.125M31.6667 17.125C28.8334 12.875 22.753 11.5678 17.5 11.4584C12.2471 11.5678 6.16671 12.875 3.33337 17.125" stroke="#8A64F6" stroke-width="2" stroke-linecap="round" stroke-linejoin="round" shape-rendering="crispEdges"/>
<path d="M17.5 2.95837C21.75 5.79171 23.0573 11.8721 23.1667 17.125C23.0573 22.378 21.75 28.4584 17.5 31.2917M17.5 2.95837C13.25 5.79171 11.9428 11.8721 11.8334 17.125C11.9428 22.378 13.25 28.4584 17.5 31.2917M17.5 2.95837C9.67601 2.95837 3.33337 9.30101 3.33337 17.125M17.5 2.95837C25.3241 2.95837 31.6667 9.30101 31.6667 17.125M17.5 31.2917C25.3241 31.2917 31.6667 24.9491 31.6667 17.125M17.5 31.2917C9.67601 31.2917 3.33337 24.9491 3.33337 17.125M31.6667 17.125C28.8334 21.375 22.753 22.6823 17.5 22.7917C12.2471 22.6823 6.16671 21.375 3.33337 17.125M31.6667 17.125C28.8334 12.875 22.753 11.5678 17.5 11.4584C12.2471 11.5678 6.16671 12.875 3.33337 17.125" stroke="url(#paint0_linear_5602_21949)" stroke-width="2" stroke-linecap="round" stroke-linejoin="round" shape-rendering="crispEdges"/>
</g>
</g>
<defs>
<filter id="filter0_dii_5602_21949" x="-4.82572" y="0.765193" width="39.8788" height="39.8788" filterUnits="userSpaceOnUse" color-interpolation-filters="sRGB">
<feFlood flood-opacity="0" result="BackgroundImageFix"/>
<feColorMatrix in="SourceAlpha" type="matrix" values="0 0 0 0 0 0 0 0 0 0 0 0 0 0 0 0 0 0 127 0" result="hardAlpha"/>
<feOffset dx="-2.38636" dy="3.57955"/>
<feGaussianBlur stdDeviation="2.38636"/>
<feComposite in2="hardAlpha" operator="out"/>
<feColorMatrix type="matrix" values="0 0 0 0 0 0 0 0 0 0 0 0 0 0 0 0 0 0 0.35 0"/>
<feBlend mode="normal" in2="BackgroundImageFix" result="effect1_dropShadow_5602_21949"/>
<feBlend mode="normal" in="SourceGraphic" in2="effect1_dropShadow_5602_21949" result="shape"/>
<feColorMatrix in="SourceAlpha" type="matrix" values="0 0 0 0 0 0 0 0 0 0 0 0 0 0 0 0 0 0 127 0" result="hardAlpha"/>
<feOffset dy="1.58097"/>
<feGaussianBlur stdDeviation="0.790483"/>
<feComposite in2="hardAlpha" operator="arithmetic" k2="-1" k3="1"/>
<feColorMatrix type="matrix" values="0 0 0 0 1 0 0 0 0 1 0 0 0 0 1 0 0 0 0.3 0"/>
<feBlend mode="normal" in2="shape" result="effect2_innerShadow_5602_21949"/>
<feColorMatrix in="SourceAlpha" type="matrix" values="0 0 0 0 0 0 0 0 0 0 0 0 0 0 0 0 0 0 127 0" result="hardAlpha"/>
<feOffset dy="1.58097"/>
<feGaussianBlur stdDeviation="0.790483"/>
<feComposite in2="hardAlpha" operator="arithmetic" k2="-1" k3="1"/>
<feColorMatrix type="matrix" values="0 0 0 0 1 0 0 0 0 1 0 0 0 0 1 0 0 0 0.3 0"/>
<feBlend mode="normal" in2="effect2_innerShadow_5602_21949" result="effect3_innerShadow_5602_21949"/>
</filter>
<linearGradient id="paint0_linear_5602_21949" x1="17.5" y1="2.95837" x2="17.5" y2="31.2917" gradientUnits="userSpaceOnUse">
<stop stop-color="#8A64F6"/>
<stop offset="1" stop-color="#E9E1FF"/>
</linearGradient>
<clipPath id="clip0_5602_21949">
<rect width="34" height="34" fill="white" transform="translate(0.5 0.125)"/>
</clipPath>
</defs>
</svg>
