<?xml version="1.0" encoding="UTF-8"?>
<!DOCTYPE svg PUBLIC "-//W3C//DTD SVG 1.1//EN" "http://www.w3.org/Graphics/SVG/1.1/DTD/svg11.dtd">
<!-- Creator: CorelDRAW -->
<svg xmlns="http://www.w3.org/2000/svg" xml:space="preserve" width="19.75in" height="22.0556in" version="1.1" style="shape-rendering:geometricPrecision; text-rendering:geometricPrecision; image-rendering:optimizeQuality; fill-rule:evenodd; clip-rule:evenodd"
viewBox="0 0 19746.66 22051.84"
 xmlns:xlink="http://www.w3.org/1999/xlink"
 xmlns:xodm="http://www.corel.com/coreldraw/odm/2003">
 <defs>
  <style type="text/css">
   <![CDATA[
    .fil1 {fill:none}
    .fil3 {fill:#38004C}
    .fil4 {fill:#A083ED}
    .fil2 {fill:black;fill-rule:nonzero}
    .fil0 {fill:url(#id8)}
   ]]>
  </style>
   <clipPath id="id0">
    <path d="M-0 0l19746.66 0 0 22051.84 -19746.66 0 0 -22051.84z"/>
   </clipPath>
   <clipPath id="id1">
    <path d="M2724.26 10445.58l1461.1 0c494.35,0 898.82,404.47 898.82,898.82l0 1427.85c0,494.35 -404.47,898.82 -898.82,898.82l-1461.1 0c-494.35,0 -898.82,-404.47 -898.82,-898.82l0 -1427.85c0,-494.35 404.47,-898.82 898.82,-898.82z"/>
   </clipPath>
   <clipPath id="id2">
    <rect x="16040.82" y="4865.12" width="1869.18" height="2440.83"/>
   </clipPath>
    <clipPath id="id3">
     <rect x="16040.81" y="4865.12" width="1869.18" height="2440.83"/>
    </clipPath>
   <clipPath id="id4">
    <rect x="14789.66" y="16566.76" width="3938.18" height="5142.58"/>
   </clipPath>
    <clipPath id="id5">
     <rect x="14789.66" y="16566.76" width="3938.18" height="5142.59"/>
    </clipPath>
   <clipPath id="id6">
    <rect x="6289.06" y="4321.92" width="1728.66" height="2257.34"/>
   </clipPath>
    <clipPath id="id7">
     <rect x="6289.06" y="4321.92" width="1728.66" height="2257.34"/>
    </clipPath>
  <radialGradient id="id8" gradientUnits="userSpaceOnUse" gradientTransform="matrix(-0.0242893 1.04251 -0.933646 -0.0217529 20404 542)" cx="10070.8" cy="10805.4" r="10805.4" fx="10070.8" fy="10805.4">
   <stop offset="0" style="stop-opacity:1; stop-color:#FEFEFE"/>
   <stop offset="1" style="stop-opacity:1; stop-color:#E6E7E8"/>
  </radialGradient>
 </defs>
 <g id="Layer_x0020_1">
  <metadata id="CorelCorpID_0Corel-Layer"/>
  <polygon class="fil0" points="-0,0 19746.66,0 19746.66,22051.84 -0,22051.84 "/>
  <g style="clip-path:url(#id0)">
   <g id="_2465733645472">
    <image x="651.85" y="235.1" width="17333.98" height="23325.17" xlink:href="ICONS_Images\ICONS_ImgID1.png"/>
   </g>
  </g>
  <polygon class="fil1" points="-0,0 19746.66,0 19746.66,22051.84 -0,22051.84 "/>
  <g style="clip-path:url(#id1)">
   <image x="1692.43" y="10295.45" width="3528.37" height="3466.02" xlink:href="ICONS_Images\ICONS_ImgID2.png"/>
  </g>
  <image x="1938.96" y="4670.33" width="3698.25" height="1849.13" xlink:href="ICONS_Images\ICONS_ImgID3.png"/>
  <image x="15752.78" y="1561.81" width="2681.77" height="2681.77" xlink:href="ICONS_Images\ICONS_ImgID4.png"/>
  <image x="2231.42" y="7001.61" width="2446.78" height="2446.78" xlink:href="ICONS_Images\ICONS_ImgID5.png"/>
  <image x="1809.2" y="1499.87" width="3365.25" height="3365.25" xlink:href="ICONS_Images\ICONS_ImgID6.png"/>
  <g style="clip-path:url(#id2)">
   <image style="clip-path:url(#id3)" x="15912.82" y="4865.12" width="6812.5" height="2580.49" xlink:href="ICONS_Images\ICONS_ImgID7.png"/>
  </g>
  <image x="16065.04" y="8092.52" width="2711.74" height="2711.74" xlink:href="ICONS_Images\ICONS_ImgID8.png"/>
  <image x="1498.21" y="15343.37" width="3365.25" height="3365.25" xlink:href="ICONS_Images\ICONS_ImgID9.png"/>
  <g style="clip-path:url(#id4)">
   <image style="clip-path:url(#id5)" x="4919.49" y="16566.76" width="14353.25" height="5436.84" xlink:href="ICONS_Images\ICONS_ImgID10.png"/>
  </g>
  <g style="clip-path:url(#id6)">
   <image style="clip-path:url(#id7)" x="4060.66" y="4321.92" width="6300.35" height="2386.5" xlink:href="ICONS_Images\ICONS_ImgID11.png"/>
  </g>
  <image x="5700.31" y="18292.9" width="2831.08" height="2831.08" xlink:href="ICONS_Images\ICONS_ImgID12.png"/>
  <image x="17146.77" y="13185.66" width="2271.27" height="2157.71" xlink:href="ICONS_Images\ICONS_ImgID13.png"/>
  <path class="fil2" d="M7020.46 2037.96c-476.96,0 -864.74,387.78 -864.74,864.74 0,476.96 387.78,864.74 864.74,864.74 151.33,0 293.2,-39.18 416.16,-106.74l-626.94 -875.55 0 494.52 -91.88 0 0 -676.93 91.88 0 682.33 1024.17c236.45,-154.03 393.18,-420.2 393.18,-724.21 0,-476.96 -387.78,-864.74 -864.74,-864.74zm298.61 1143.07l-101.34 -152.68 0 -425.61 101.34 0 0 578.29z"/>
  <g id="_2465733630832">
   <path class="fil3" d="M2621.45 20269.23l519.14 -1.05c259.49,1.89 657.09,-7.96 899.27,1.81l0.35 210.83c0.32,212.27 6.86,658.59 -1.31,851.89l-1417.8 1.06 -0.4 -1009.6 0.74 -54.94zm-710.47 -819.36l0 1224.24c29.22,51.01 43.89,166.6 186.41,215.47 89.52,30.7 277.13,17.46 381.43,17.68l-0.87 466.84c0.87,61.05 11.12,72.08 50.44,101.38l1653.85 0 0 -1299.97c-35.55,-45.76 -29.49,-48.78 -109.48,-49.18l-1339.43 0.2c-318.71,0.65 -256.21,-77.89 -255.08,638.91 -184.56,-1.35 -425.39,53.15 -425.17,-158.93 0.15,-142.73 -9.42,-1099.29 4.52,-1154.23 22.97,-90.58 100.92,-107.16 182.25,-106.36l579.63 -0.28c102.53,0.33 172.55,0.43 211.46,77.95 52.97,105.54 -26.16,476.03 38.8,540.64 29.16,29.01 74.28,25.81 99.93,-2.71 25.44,-28.27 19.74,-80.25 19.32,-122.9 -1.86,-189.53 28.07,-400.03 -59.01,-521.92 -58.81,-82.32 -128.93,-88.34 -172.15,-112.47l-811.83 0c-67.65,37.32 -100.69,25.4 -156.82,86.04 -12.75,13.77 -39.62,50.42 -50.63,74.56 -12.09,26.5 -17.1,62.72 -27.59,85.07z"/>
   <path class="fil3" d="M2195.07 19783.76c12.37,193.46 245.73,268.49 374.3,125.67 78.22,-86.9 60.43,-371.91 32.01,-400.89 -28.02,-28.57 -85.64,-25.05 -107.4,4.61 -37.2,50.71 5.19,236.96 -26.04,294.87 -19.07,35.36 -84.94,46.46 -114.71,10.87 -40.34,-48.24 5.59,-233.89 -25.83,-294.66 -15.47,-29.94 -64.35,-49.92 -102.88,-22.47 -44.26,31.53 -33.07,225.32 -29.44,282z"/>
   <path class="fil4" d="M2817.48 20414.05c-74.99,18.11 -57.68,142.83 -54.94,262.78 5.34,234.46 239.28,283.38 354.87,172.42 74.55,-71.57 69.68,-124.02 71.37,-250.96 0.61,-45.85 8.07,-111.22 -10.24,-147.93 -15.8,-31.7 -58.32,-56.41 -101.9,-25.98 -59.98,41.87 -13.67,209.14 -32.86,289.15 -12.88,53.71 -145.34,117.51 -139.71,-76.05 2.36,-81.21 23.32,-249.97 -86.57,-223.43z"/>
   <path class="fil4" d="M3467.14 20543.72c-47.23,-63.49 -114.87,-181.58 -185.03,-101.48 -64.29,73.41 61.87,137.62 96.17,218.71 -51.74,90.55 -155.75,145.94 -104.11,218.62 65.21,91.8 157.62,-62.62 199.85,-105.42 29.75,33.81 127.06,205.13 196.16,103.1 52.88,-78.09 -81.02,-149.95 -106.24,-225.56 48.12,-49.99 155.01,-158.17 109.33,-217.52 -75.83,-98.53 -159.95,84.23 -206.13,109.54z"/>
   <path class="fil3" d="M3893 21146.52c57.09,-136.69 -233.07,-96.87 -321.64,-96.92 -70.5,-0.04 -140.97,-0.35 -211.46,-0.33 -70.5,0.01 -150.01,-12.96 -167.8,47.6 -23.29,79.27 45.48,96.11 112.76,95.05l423.15 -0.83c64.97,0 140.49,14.13 165,-44.56z"/>
   <path class="fil3" d="M2901.73 19932.57c8.59,-27.51 3.59,-263.22 3.72,-313.33 0.14,-50.9 4.14,-96.78 -35.81,-120.79 -39.53,-23.75 -87.32,-3.63 -100.45,31.1 -13.09,34.65 -6.64,262.16 -6.51,316.86 0.12,53.64 -6.13,103.17 32.82,126.24 47.35,28.05 93.59,0.38 106.23,-40.1z"/>
   <path class="fil3" d="M2765.66 21138.69c13.51,61.96 89.6,53.14 155.76,53.27 37.53,0.07 134.62,6.99 123.18,-82.67 -9.32,-73.02 -89.96,-59.47 -154.64,-59.85 -67.31,-0.39 -142.5,5.79 -124.3,89.25z"/>
  </g>
 </g>
</svg>
