<?xml version="1.0" encoding="utf-8"?>
<svg xmlns="http://www.w3.org/2000/svg" fill="none" height="64" width="64">
  <rect fill="#C0DDD6" height="64" rx="32" width="64"/>
  <path d="m27 44-3 3M21 43l-4 4M20 38l-3 3M28.8 35.2l-5.6 5.6M31.2 40.8v6.4l8.8-8.8V32c5.486-5.443 6.429-8.142 7.2-15.2-7.114.765-9.8 2.557-15.2 8h-6.4l-8.8 8.8h6.4s.286 5.159 8 7.2Z" stroke="#07404E" stroke-linejoin="round" stroke-miterlimit="10" stroke-width="2"/>
  <path d="M40 18s1.393 4.5 6 6M31.2 40.8 40 32M23.2 33.6l8.8-8.8" stroke="#07404E" stroke-linejoin="round" stroke-miterlimit="10" stroke-width="2"/>
  <path d="M38 27.2a1.2 1.2 0 1 0 0-2.4 1.2 1.2 0 0 0 0 2.4ZM34 31.2a1.2 1.2 0 1 0 0-2.4 1.2 1.2 0 0 0 0 2.4Z" fill="#07404E"/>
</svg>