<?xml version="1.0" encoding="utf-8"?>
<svg xmlns="http://www.w3.org/2000/svg" fill="none" height="64" viewBox="0 0 64 64" width="64">
<rect fill="#C0DDD6" height="64" rx="32" width="64"/>
<path d="M32 25.6C34.2091 25.6 36 23.8091 36 21.6C36 19.3909 34.2091 17.6 32 17.6C29.7909 17.6 28 19.3909 28 21.6C28 23.8091 29.7909 25.6 32 25.6Z" stroke="#07404E" stroke-linejoin="round" stroke-miterlimit="10" stroke-width="2"/>
<path d="M35.7023 32.8L36.7936 27.1517C36.8776 26.3448 36.122 25.6 35.1986 25.6H28.8185C27.8111 25.6 27.0555 26.3448 27.2234 27.1517L28.3148 32.8H35.7023Z" stroke="#07404E" stroke-linejoin="round" stroke-miterlimit="10" stroke-width="2"/>
<path d="M41.3977 40.8524C41.3977 40.8524 42.7129 38.8398 43.3318 36.595C43.8734 34.9694 43.1771 33.576 42.6355 32.7245C42.4034 32.3375 41.8619 32.3375 41.5524 32.7245L36.0596 40.2332C35.0539 41.3169 35.2086 42.7877 35.2086 44.3359V47.2H37.0653C39.1541 47.2 41.243 46.5033 42.8676 45.1874C42.945 45.1099 43.0224 45.1099 43.0224 45.0325C45.1885 43.1747 47.2 40.4654 47.2 37.6013V26.6092C47.2 24.9062 46.349 24.5966 45.4206 24.9062C44.8791 25.061 43.6413 26.2995 43.5639 27.6929L42.945 33.189" stroke="#07404E" stroke-linejoin="round" stroke-miterlimit="10" stroke-width="2"/>
<path d="M22.642 40.8524C22.642 40.8524 21.3352 38.8398 20.7203 36.595C20.1822 34.9694 20.874 33.576 21.4121 32.7245C21.6427 32.3375 22.1808 32.3375 22.4883 32.7245L27.9459 40.3106C28.9452 41.3943 28.7915 42.8651 28.7915 44.4133V47.2H26.9466C24.8712 47.2 22.7957 46.5033 21.1815 45.1874C21.1046 45.1099 21.0278 45.1099 21.0278 45.0325C18.7986 43.2521 16.8 40.4654 16.8 37.6013V26.6092C16.8 24.9062 17.6455 24.5966 18.568 24.9062C19.106 25.061 20.3359 26.2995 20.4128 27.6929L21.0278 33.189" stroke="#07404E" stroke-linejoin="round" stroke-miterlimit="10" stroke-width="2"/>
</svg>