<?xml version="1.0" encoding="utf-8"?>
<svg xmlns="http://www.w3.org/2000/svg" fill="none" height="30" viewBox="0 0 185 30" width="185">
<g clip-path="url(#clip0_829_2635)">
<path d="M16.4186 25.2932C15.9466 25.0072 15.3548 25.0073 14.8828 25.2933L7.64403 29.6808C6.52204 30.3608 5.13501 29.3547 5.43315 28.077L7.35226 19.8526C7.47693 19.3184 7.29616 18.7589 6.88241 18.3986L0.510673 12.8498C-0.476302 11.9903 0.0542801 10.3668 1.35835 10.2561L9.75537 9.543C10.3022 9.49657 10.7785 9.15171 10.9934 8.64675L14.2888 0.90157C14.8003 -0.300524 16.5041 -0.300523 17.0156 0.901572L20.311 8.64675C20.5258 9.15171 21.0022 9.49657 21.549 9.543L29.946 10.2561C31.2501 10.3668 31.7806 11.9903 30.7937 12.8498L24.4219 18.3986C24.0082 18.7589 23.8274 19.3184 23.9521 19.8527L25.8713 28.0776C26.1695 29.3552 24.7826 30.3613 23.6606 29.6814L16.4186 25.2932Z" fill="#FFAE3D"/>
</g>
<g clip-path="url(#clip1_829_2635)">
<path d="M53.723 25.2932C53.2509 25.0072 52.6591 25.0073 52.1871 25.2933L44.9484 29.6808C43.8264 30.3608 42.4393 29.3547 42.7375 28.077L44.6566 19.8526C44.7813 19.3184 44.6005 18.7589 44.1867 18.3986L37.815 12.8498C36.828 11.9903 37.3586 10.3668 38.6627 10.2561L47.0597 9.543C47.6065 9.49657 48.0829 9.15171 48.2977 8.64675L51.5931 0.90157C52.1046 -0.300524 53.8084 -0.300523 54.3199 0.901572L57.6153 8.64675C57.8301 9.15171 58.3065 9.49657 58.8533 9.543L67.2503 10.2561C68.5544 10.3668 69.085 11.9903 68.098 12.8498L61.7263 18.3986C61.3125 18.7589 61.1317 19.3184 61.2564 19.8527L63.1757 28.0776C63.4738 29.3552 62.0869 30.3613 60.9649 29.6814L53.723 25.2932Z" fill="#FFAE3D"/>
</g>
<g clip-path="url(#clip2_829_2635)">
<path d="M91.0273 25.2932C90.5553 25.0072 89.9634 25.0073 89.4914 25.2933L82.2527 29.6808C81.1307 30.3608 79.7437 29.3547 80.0418 28.077L81.9609 19.8526C82.0856 19.3184 81.9048 18.7589 81.4911 18.3986L75.1193 12.8498C74.1323 11.9903 74.6629 10.3668 75.967 10.2561L84.364 9.543C84.9108 9.49657 85.3872 9.15171 85.602 8.64675L88.8974 0.90157C89.4089 -0.300524 91.1127 -0.300523 91.6242 0.901572L94.9196 8.64675C95.1345 9.15171 95.6108 9.49657 96.1576 9.543L104.555 10.2561C105.859 10.3668 106.389 11.9903 105.402 12.8498L99.0306 18.3986C98.6168 18.7589 98.4361 19.3184 98.5607 19.8527L100.48 28.0776C100.778 29.3552 99.3912 30.3613 98.2692 29.6814L91.0273 25.2932Z" fill="#FFAE3D"/>
</g>
<g clip-path="url(#clip3_829_2635)">
<path d="M128.332 25.2932C127.86 25.0072 127.268 25.0073 126.796 25.2933L119.557 29.6808C118.435 30.3608 117.048 29.3547 117.346 28.077L119.265 19.8526C119.39 19.3184 119.209 18.7589 118.795 18.3986L112.424 12.8498C111.437 11.9903 111.967 10.3668 113.271 10.2561L121.668 9.543C122.215 9.49657 122.692 9.15171 122.906 8.64675L126.202 0.90157C126.713 -0.300524 128.417 -0.300523 128.929 0.901572L132.224 8.64675C132.439 9.15171 132.915 9.49657 133.462 9.543L141.859 10.2561C143.163 10.3668 143.694 11.9903 142.707 12.8498L136.335 18.3986C135.921 18.7589 135.741 19.3184 135.865 19.8527L137.784 28.0776C138.083 29.3552 136.696 30.3613 135.574 29.6814L128.332 25.2932Z" fill="#FFAE3D"/>
</g>
<g clip-path="url(#clip4_829_2635)">
<path d="M165.636 25.2932C165.164 25.0072 164.572 25.0073 164.1 25.2933L156.861 29.6808C155.739 30.3608 154.352 29.3547 154.651 28.077L156.57 19.8526C156.694 19.3184 156.514 18.7589 156.1 18.3986L149.728 12.8498C148.741 11.9903 149.272 10.3668 150.576 10.2561L158.973 9.543C159.52 9.49657 159.996 9.15171 160.211 8.64675L163.506 0.90157C164.018 -0.300524 165.721 -0.300523 166.233 0.901572L169.528 8.64675C169.743 9.15171 170.22 9.49657 170.766 9.543L179.163 10.2561C180.467 10.3668 180.998 11.9903 180.011 12.8498L173.639 18.3986C173.226 18.7589 173.045 19.3184 173.169 19.8527L175.089 28.0776C175.387 29.3552 174 30.3613 172.878 29.6814L165.636 25.2932Z" fill="#E5E4E3"/>
<mask height="30" id="mask0_829_2635" maskUnits="userSpaceOnUse" style="mask-type:alpha" width="32" x="149" y="0">
<path d="M165.636 25.2932C165.164 25.0072 164.572 25.0073 164.1 25.2933L156.861 29.6808C155.739 30.3608 154.352 29.3547 154.651 28.077L156.57 19.8526C156.694 19.3184 156.514 18.7589 156.1 18.3986L149.728 12.8498C148.741 11.9903 149.272 10.3668 150.576 10.2561L158.973 9.543C159.52 9.49657 159.996 9.15171 160.211 8.64675L163.506 0.90157C164.018 -0.300524 165.721 -0.300523 166.233 0.901572L169.528 8.64675C169.743 9.15171 170.22 9.49657 170.766 9.543L179.163 10.2561C180.467 10.3668 180.998 11.9903 180.011 12.8498L173.639 18.3986C173.226 18.7589 173.045 19.3184 173.169 19.8527L175.089 28.0776C175.387 29.3552 174 30.3613 172.878 29.6814L165.636 25.2932Z" fill="#191817"/>
</mask>
<g mask="url(#mask0_829_2635)">
<rect fill="#FFAE3D" height="29.8969" width="15.6522" x="149.217"/>
</g>
</g>
<defs>
<clipPath id="clip0_829_2635">
<rect fill="white" height="30" width="31.3043"/>
</clipPath>
<clipPath id="clip1_829_2635">
<rect fill="white" height="30" transform="translate(37.3043)" width="31.3043"/>
</clipPath>
<clipPath id="clip2_829_2635">
<rect fill="white" height="30" transform="translate(74.6086)" width="31.3043"/>
</clipPath>
<clipPath id="clip3_829_2635">
<rect fill="white" height="30" transform="translate(111.913)" width="31.3043"/>
</clipPath>
<clipPath id="clip4_829_2635">
<rect fill="white" height="30" transform="translate(149.217)" width="31.3043"/>
</clipPath>
</defs>
</svg>